# xmcd CD database file
#
# Track frame offsets:
#	150
#	15712
#	29782
#	42982
#	58222
#	72922
#	95707
#	109336
#	128423
#	145991
#	163494
#
# Disc length: 2391 seconds
#
# Revision: 0
# Processed by: cddbd v1.5.2PL0 Copyright (c) Steve Scherf et al.
# Submitted via: CDex 1.70beta2
#
DISCID=a809550b
DTITLE=Ange Amadei and Manuel Julvez - Stormy Road
DYEAR=2010
DGENRE=Country
TTITLE0=Stormy Road
TTITLE1=Big Ole Parade
TTITLE2=Hey Brother
TTITLE3=Tennessee Box
TTITLE4=Last Cat's Waltz
TTITLE5=Wedding On The Bayou
TTITLE6=Country Xpress
TTITLE7=Stolen Moments
TTITLE8=One Day
TTITLE9=Goodbye
TTITLE10=Endless Moments
EXTD=YEAR: 2010
EXTT0=
EXTT1=
EXTT2=
EXTT3=
EXTT4=
EXTT5=
EXTT6=
EXTT7=
EXTT8=
EXTT9=
EXTT10=
PLAYORDER=
